<svg xmlns="http://www.w3.org/2000/svg" width="44.284" height="40.174" viewBox="0 0 44.284 40.174">
  <g id="icon-1719742" transform="translate(-53 -59.96)">
    <rect id="Rectangle_2" data-name="Rectangle 2" width="1.181" height="2.362" transform="translate(74.551 85.952)" fill="#fff"/>
    <rect id="Rectangle_3" data-name="Rectangle 3" width="1.181" height="2.362" transform="translate(74.551 71.781)" fill="#fff"/>
    <rect id="Rectangle_4" data-name="Rectangle 4" width="2.362" height="1.181" transform="translate(66.876 79.457)" fill="#fff"/>
    <rect id="Rectangle_5" data-name="Rectangle 5" width="2.362" height="1.181" transform="translate(81.046 79.457)" fill="#fff"/>
    <rect id="Rectangle_6" data-name="Rectangle 6" width="2.363" height="1.181" transform="translate(79.731 83.804) rotate(45)" fill="#fff"/>
    <rect id="Rectangle_7" data-name="Rectangle 7" width="2.363" height="1.181" transform="translate(69.711 73.784) rotate(45)" fill="#fff"/>
    <rect id="Rectangle_8" data-name="Rectangle 8" width="1.181" height="2.363" transform="translate(70.55 83.804) rotate(45)" fill="#fff"/>
    <rect id="Rectangle_9" data-name="Rectangle 9" width="1.181" height="2.363" transform="translate(80.569 73.784) rotate(45)" fill="#fff"/>
    <path id="Path_2" data-name="Path 2" d="M99.487,100.134A13.522,13.522,0,0,1,92.406,97.7,34.353,34.353,0,0,1,81.75,85.946a34.355,34.355,0,0,1-4.856-15.108c-.212-4.815,1.209-8.354,4-9.966S87.464,59.8,91.527,62.39a34.352,34.352,0,0,1,10.656,11.759,34.356,34.356,0,0,1,4.856,15.108c.212,4.815-1.209,8.354-4,9.966A7,7,0,0,1,99.487,100.134ZM84.453,61.141a5.85,5.85,0,0,0-2.967.753c-2.393,1.381-3.6,4.539-3.412,8.891a33.163,33.163,0,0,0,4.7,14.57A33.166,33.166,0,0,0,93.041,96.709c3.673,2.343,7.014,2.872,9.406,1.491s3.6-4.539,3.412-8.891a33.163,33.163,0,0,0-4.7-14.57A33.166,33.166,0,0,0,90.892,63.385,12.378,12.378,0,0,0,84.453,61.141Z" transform="translate(-16.826 0)" fill="#fff"/>
    <path id="Path_3" data-name="Path 3" d="M84.452,100.135a7,7,0,0,1-3.551-.912c-2.793-1.612-4.213-5.152-4-9.966A34.354,34.354,0,0,1,81.755,74.15,34.358,34.358,0,0,1,92.411,62.39c4.063-2.591,7.839-3.131,10.632-1.518s4.213,5.152,4,9.966a34.354,34.354,0,0,1-4.856,15.108A34.358,34.358,0,0,1,91.533,97.706a13.524,13.524,0,0,1-7.081,2.429ZM99.485,61.142a12.381,12.381,0,0,0-6.439,2.244A33.166,33.166,0,0,0,82.778,74.74a33.162,33.162,0,0,0-4.7,14.57c-.192,4.353,1.02,7.51,3.412,8.891s5.732.852,9.406-1.491a33.166,33.166,0,0,0,10.268-11.354,33.162,33.162,0,0,0,4.7-14.57c.192-4.353-1.02-7.51-3.412-8.891a5.851,5.851,0,0,0-2.967-.753Z" transform="translate(-16.829 -0.001)" fill="#fff"/>
    <path id="Path_4" data-name="Path 4" d="M75.142,111.634a34.354,34.354,0,0,1-15.511-3.349c-4.276-2.223-6.63-5.224-6.63-8.448s2.355-6.225,6.63-8.448A34.354,34.354,0,0,1,75.142,88.04a34.354,34.354,0,0,1,15.511,3.349c4.276,2.223,6.63,5.224,6.63,8.448s-2.355,6.225-6.63,8.448A34.354,34.354,0,0,1,75.142,111.634Zm0-22.414c-11.558,0-20.961,4.762-20.961,10.616s9.4,10.616,20.961,10.616S96.1,105.691,96.1,99.837,86.7,89.221,75.142,89.221Z" transform="translate(0 -19.79)" fill="#fff"/>
    <circle id="Ellipse_1" data-name="Ellipse 1" cx="4.428" cy="4.428" r="4.428" transform="translate(70.714 75.619)" fill="#dda833"/>
    <path id="Path_5" data-name="Path 5" d="M116.019,121.038a5.019,5.019,0,1,1,5.019-5.019A5.024,5.024,0,0,1,116.019,121.038Zm0-8.857a3.838,3.838,0,1,0,3.838,3.838A3.842,3.842,0,0,0,116.019,112.181Z" transform="translate(-40.877 -35.972)" fill="#fff"/>
  </g>
</svg>
